<?xml version="1.0" encoding="utf-8"?>
<!-- Generator: Adobe Illustrator 22.0.1, SVG Export Plug-In . SVG Version: 6.00 Build 0)  -->
<svg version="1.1" id="Ebene_1" xmlns="http://www.w3.org/2000/svg" xmlns:xlink="http://www.w3.org/1999/xlink" x="0px" y="0px"
	 viewBox="0 0 77 88" style="enable-background:new 0 0 77 88;" xml:space="preserve">
<style type="text/css">
	.st0{fill:#606060;}
</style>
<path class="st0" d="M62.9,29.4V17.1C62.9,7.7,55.2,0,45.8,0H32.4C23,0,15.3,7.7,15.3,17.1v12.2c-5.3,3.1-8.9,8.9-8.9,15.5v25.3
	c0,9.8,8,17.9,17.9,17.9H54c9.8,0,17.9-8,17.9-17.9V44.8C71.8,38.2,68.2,32.5,62.9,29.4z M46.4,53.9c-0.1,1.7-0.8,3.2-1.8,4.4v11.8
	c0,2.5-2,4.5-4.5,4.5h-3.8c-2.5,0-4.5-2-4.5-4.5V58.3c-1-1.3-1.7-2.8-1.8-4.5c0-0.2,0-0.4,0-0.7c0-2,0.7-3.8,1.8-5.2
	c1.5-1.9,3.8-3.1,6.4-3.1c2.6,0,4.9,1.2,6.5,3.1c1.1,1.4,1.8,3.2,1.8,5.1C46.5,53.3,46.5,53.6,46.4,53.9z M57,27.2
	c-1-0.2-2-0.3-3-0.3H24.2c-1,0-2,0.1-3,0.3V17.1C21.2,11,26.2,6,32.4,6h13.4C52,6,57,11,57,17.1V27.2z"/>
</svg>
