<?xml version="1.0" encoding="utf-8"?>
<!-- Generator: Adobe Illustrator 24.0.1, SVG Export Plug-In . SVG Version: 6.00 Build 0)  -->
<svg version="1.1" id="Ebene_1" xmlns="http://www.w3.org/2000/svg" xmlns:xlink="http://www.w3.org/1999/xlink" x="0px" y="0px"
	 viewBox="0 0 100 100" style="enable-background:new 0 0 100 100;" xml:space="preserve">
<style type="text/css">
	.st0{fill:#EA113F;}
</style>
<g>
	
		<image style="overflow:visible;" width="147" height="142" xlink:href="7ED94E32.png"  transform="matrix(1 0 0 1 -23.0717 -20.6614)">
	</image>
</g>
<g>
	<g>
		<path class="st0" d="M19.7,22.3L19.7,22.3c-8.8,8.8-8.8,23.1,0,31.9l14.4,14.4c0.1,0.1,0.2,0.2,0.2,0.2L50,84.4V20.7
			C41.1,13.4,28,13.9,19.7,22.3z"/>
	</g>
	<g>
		<path class="st0" d="M80.4,22.2L80.4,22.2C72,13.8,58.9,13.4,50,20.7v63.7l0,0l15.3-15.3c0.2-0.2,0.5-0.4,0.7-0.7l0,0
			c0.2-0.2,0.4-0.5,0.7-0.7l13.7-13.6C89.1,45.2,89.1,31,80.4,22.2z"/>
	</g>
</g>
</svg>
